<?xml version="1.0" encoding="utf-8"?>
<!-- Generator: Adobe Illustrator 22.1.0, SVG Export Plug-In . SVG Version: 6.00 Build 0)  -->
<svg version="1.1" id="Layer_1" xmlns="http://www.w3.org/2000/svg" xmlns:xlink="http://www.w3.org/1999/xlink" x="0px" y="0px"
	 viewBox="0 0 319.3 112.9" style="enable-background:new 0 0 319.3 112.9;" xml:space="preserve">
<style type="text/css">
	.st0{fill:#FFFFFF;}
</style>
<path class="st0" d="M41.7,40.8c-0.5,0-0.9-0.4-0.9-0.9V11h-5.9v27c0,0.5-0.4,0.9-0.9,0.9H15.3c-0.5,0-0.9-0.4-0.9-0.9V11H8.4v28.8
	c0,0.5-0.4,0.9-0.9,0.9s-0.9-0.4-0.9-0.9V10.1c0-0.5,0.4-0.9,0.9-0.9h7.8c0.5,0,0.9,0.4,0.9,0.9v27H33v-27c0-0.5,0.4-0.9,0.9-0.9
	h7.8c0.5,0,0.9,0.4,0.9,0.9v29.7C42.6,40.3,42.2,40.8,41.7,40.8"/>
<path class="st0" d="M41.7,75.8h-7.8c-0.5,0-0.9-0.4-0.9-0.9V46.8H16.2v28.1c0,0.5-0.4,0.9-0.9,0.9H7.5c-0.5,0-0.9-0.4-0.9-0.9V43.7
	c0-0.5,0.4-0.9,0.9-0.9s0.9,0.4,0.9,0.9V74h5.9V45.9c0-0.5,0.4-0.9,0.9-0.9h18.6c0.5,0,0.9,0.4,0.9,0.9V74h5.9V43.7
	c0-0.5,0.4-0.9,0.9-0.9c0.5,0,0.9,0.4,0.9,0.9v31.2C42.6,75.4,42.2,75.8,41.7,75.8"/>
<path class="st0" d="M118.4,57.5c0,4.7-1.6,9-4.5,12.3c-3.3,3.7-8,5.6-13.7,5.6H70.9c-0.5,0-0.9-0.4-0.9-0.9s0.4-0.9,0.9-0.9h29.3
	c5.1,0,9.3-1.7,12.3-5c2.6-2.9,4-6.8,4-11c0-4.3-1.5-8.3-4.1-11.2c-3-3.3-7.2-5.1-12.2-5.1H70.9c-0.5,0-0.9-0.4-0.9-0.9
	s0.4-0.9,0.9-0.9h29.3C112.2,39.3,118.4,48.4,118.4,57.5"/>
<path class="st0" d="M110.7,59.2c0,0.1,0,0.1,0,0.2c-1,4.9-5.1,8.1-10.5,8.1H53.3v5.9h13.7c0.5,0,0.9,0.4,0.9,0.9
	c0,0.5-0.4,0.9-0.9,0.9H52.4c-0.5,0-0.9-0.4-0.9-0.9v-7.8c0-0.5,0.4-0.9,0.9-0.9h47.8c5.4,0,8-3.4,8.6-6.6c0.1-0.5,0.6-0.8,1.1-0.7
	C110.4,58.4,110.7,58.8,110.7,59.2"/>
<path class="st0" d="M110.7,55.4c0,0.4-0.3,0.8-0.8,0.9c-0.5,0.1-1-0.2-1.1-0.7c-0.6-3.2-3.2-6.6-8.6-6.6H52.4
	c-0.5,0-0.9-0.4-0.9-0.9v-7.8c0-0.5,0.4-0.9,0.9-0.9h14.6c0.5,0,0.9,0.4,0.9,0.9c0,0.5-0.4,0.9-0.9,0.9H53.3v5.9h46.9
	c5.4,0,9.5,3.2,10.5,8.1C110.7,55.3,110.7,55.3,110.7,55.4"/>
<path class="st0" d="M144,76.8c-0.2,0-0.3,0-0.5-0.1c-15.3-8.6-16.9-13.6-17.5-19.1c0,0,0,0,0,0c-0.3-5,1.5-9.8,4.9-13.4
	c3.5-3.7,8.3-5.7,13.6-5.7c10.2,0,18.5,8.4,18.5,18.7c0,0.5-0.4,0.9-0.9,0.9H154c-0.5,0-0.9-0.4-0.9-0.9c-0.2-5.1-3.6-8.5-8.4-8.5
	c-2.6,0-4.9,1-6.5,2.6c-1.4,1.5-2.1,3.5-1.9,5.7c0.2,3.8,3.3,5.9,8.3,9.1c0.4,0.3,0.6,0.8,0.3,1.3c-0.3,0.4-0.8,0.6-1.3,0.3
	c-5.4-3.3-9-5.9-9.2-10.5c-0.2-2.7,0.7-5.2,2.4-7.1c1.9-2.1,4.8-3.2,7.9-3.2c5.6,0,9.7,3.8,10.2,9.4h6.4
	c-0.5-8.8-7.8-15.9-16.6-15.9c-4.8,0-9.1,1.8-12.3,5.1c-3.1,3.2-4.6,7.5-4.4,12c0.5,5,2.1,9.5,16.5,17.6c0.4,0.3,0.6,0.8,0.4,1.3
	C144.6,76.7,144.3,76.8,144,76.8"/>
<path class="st0" d="M145.6,106.6c-10.4,0-18.8-8.6-18.8-19.2c0-0.5,0.4-0.9,0.9-0.9h8.4c0.5,0,0.9,0.4,0.9,0.9
	c0.1,5,3.8,8.7,8.6,8.7c2.6,0,5-1,6.6-2.7c1.5-1.6,2.2-3.6,2-5.9c-0.2-3.8-2.9-5.9-7.4-8.8c-0.4-0.3-0.6-0.9-0.3-1.3
	c0.3-0.4,0.9-0.6,1.3-0.3c4.9,3.1,8.1,5.6,8.3,10.2c0.2,2.8-0.7,5.4-2.5,7.3c-1.9,2.1-4.8,3.3-8,3.3c-5.5,0-9.8-4.1-10.4-9.6h-6.5
	c0.5,9.1,7.9,16.3,16.9,16.3c4.8,0,9.2-1.9,12.4-5.2c3.2-3.3,4.8-7.8,4.5-12.4c-0.5-5-2-9.8-15.8-17.5c-0.4-0.3-0.6-0.8-0.4-1.3
	c0.3-0.4,0.8-0.6,1.3-0.4c13.2,7.4,16.1,12.5,16.7,18.9c0,0,0,0,0,0c0.3,5.1-1.6,10.2-5.1,13.8C155.9,104.5,151,106.6,145.6,106.6"
	/>
<path class="st0" d="M209.6,74.7h-34.2c-0.5,0-0.9-0.4-0.9-0.9V42.9c0-0.5,0.4-0.9,0.9-0.9c0.5,0,0.9,0.4,0.9,0.9v30h32.3V67h-25.4
	c-0.5,0-0.9-0.4-0.9-0.9V44.8c0-0.5,0.4-0.9,0.9-0.9h13.1v-0.9c0-0.5,0.4-0.9,0.9-0.9c0.5,0,0.9,0.4,0.9,0.9v1.8
	c0,0.5-0.4,0.9-0.9,0.9h-13.1v19.4h25.4c0.5,0,0.9,0.4,0.9,0.9v7.8C210.5,74.3,210.1,74.7,209.6,74.7"/>
<path class="st0" d="M197.2,39.9c-0.5,0-0.9-0.4-0.9-0.9v-1.1h-13.1c-0.5,0-0.9-0.4-0.9-0.9V16.8c0-0.5,0.4-0.9,0.9-0.9h25.4V9.9
	h-32.3v29c0,0.5-0.4,0.9-0.9,0.9s-0.9-0.4-0.9-0.9V9c0-0.5,0.4-0.9,0.9-0.9h34.2c0.5,0,0.9,0.4,0.9,0.9v7.8c0,0.5-0.4,0.9-0.9,0.9
	h-25.4V36h13.1c0.5,0,0.9,0.4,0.9,0.9v2C198.1,39.5,197.7,39.9,197.2,39.9"/>
<path class="st0" d="M284.7,60.2v2.1c0,0.5-0.4,0.9-0.9,0.9h-56.1v12.2c0,0.5-0.4,0.9-0.9,0.9H219c-0.5,0-0.9-0.4-0.9-0.9V60.2
	c0-0.5,0.4-0.9,0.9-0.9c0.5,0,0.9,0.4,0.9,0.9v14.2h5.9V62.3c0-0.5,0.4-0.9,0.9-0.9h56.1v-1.1c0-0.5,0.4-0.9,0.9-0.9
	C284.3,59.3,284.7,59.7,284.7,60.2"/>
<path class="st0" d="M284.7,54.3v2c0,0.5-0.4,0.9-0.9,0.9c-0.5,0-0.9-0.4-0.9-0.9v-1.1h-56.1c-0.5,0-0.9-0.4-0.9-0.9V42.1h-5.9v14.1
	c0,0.5-0.4,0.9-0.9,0.9c-0.5,0-0.9-0.4-0.9-0.9V41.2c0-0.5,0.4-0.9,0.9-0.9h7.8c0.5,0,0.9,0.4,0.9,0.9v12.2h56.1
	C284.3,53.3,284.7,53.8,284.7,54.3"/>
<path class="st0" d="M313.3,59.2c0,0.2-0.1,0.5-0.3,0.7l-18,18c-0.3,0.3-0.7,0.3-1,0.2c-0.3-0.1-0.6-0.5-0.6-0.9V61.1
	c0-0.5,0.4-0.9,0.9-0.9s0.9,0.4,0.9,0.9v13.8L311,59.2l-15.7-15.7v13.7c0,0.5-0.4,0.9-0.9,0.9s-0.9-0.4-0.9-0.9v-16
	c0-0.4,0.2-0.7,0.6-0.9c0.3-0.1,0.8-0.1,1,0.2l18,18C313.2,58.7,313.3,58.9,313.3,59.2"/>
</svg>
